PathFileType	4	(X/Y/Z)	C:\Users\86182\Documents\cortex\Trimmed_M4_H12.trc
DataRate	CameraRate	NumFrames	NumMarkers	Units	OrigDataRate	OrigDataStartFrame	OrigNumFrames
100.00	100.00	       158	2	mm	100.00	1	       901
Frame#	Time	gripper			box			
		X1	Y1	Z1	X2	Y2	Z2	

1	0.000	277.04602	150.10382	192.44937	280.53381	147.02315	57.38708	
2	0.010	277.04636	150.10452	192.44783	280.53534	147.02357	57.38646	
3	0.020	277.04846	150.10500	192.44695	280.53699	147.02374	57.38594	
4	0.030	277.05234	150.10495	192.44673	280.53912	147.02391	57.38536	
5	0.040	277.05753	150.10432	192.44724	280.54169	147.02419	57.38464	
6	0.050	277.06345	150.10329	192.44836	280.54428	147.02444	57.38387	
7	0.060	277.06934	150.10213	192.44989	280.54617	147.02435	57.38327	
8	0.070	277.07462	150.10114	192.45148	280.54678	147.02361	57.38312	
9	0.080	277.07877	150.10052	192.45297	280.54584	147.02228	57.38364	
10	0.090	277.08173	150.10033	192.45435	280.54370	147.02078	57.38481	
11	0.100	277.08386	150.10023	192.45552	280.54132	147.01959	57.38623	
12	0.110	277.08582	150.09969	192.45631	280.53961	147.01889	57.38737	
13	0.120	277.08823	150.09836	192.45656	280.53925	147.01866	57.38776	
14	0.130	277.09119	150.09647	192.45622	280.54047	147.01884	57.38718	
15	0.140	277.09439	150.09448	192.45543	280.54337	147.01933	57.38558	
16	0.150	277.09735	150.09277	192.45438	280.54758	147.02002	57.38319	
17	0.160	277.09937	150.09175	192.45331	280.55243	147.02078	57.38039	
18	0.170	277.09995	150.09166	192.45247	280.55698	147.02153	57.37776	
19	0.180	277.09943	150.09213	192.45192	280.56030	147.02214	57.37589	
20	0.190	277.09891	150.09241	192.45169	280.56195	147.02267	57.37507	
21	0.200	277.09906	150.09201	192.45180	280.56210	147.02318	57.37521	
22	0.210	277.09985	150.09106	192.45218	280.56134	147.02347	57.37589	
23	0.220	277.10052	150.08998	192.45248	280.56021	147.02338	57.37661	
24	0.230	277.10022	150.08913	192.45227	280.55911	147.02290	57.37716	
25	0.240	277.09839	150.08879	192.45135	280.55811	147.02225	57.37756	
26	0.250	277.09479	150.08910	192.44995	280.55710	147.02158	57.37793	
27	0.260	277.08948	150.09019	192.44856	280.55634	147.02101	57.37820	
28	0.270	277.08307	150.09222	192.44783	280.55627	147.02071	57.37807	
29	0.280	277.07660	150.09506	192.44824	280.55762	147.02072	57.37717	
30	0.290	277.07147	150.09825	192.44984	280.56079	147.02104	57.37517	
31	0.300	277.06845	150.10110	192.45227	280.56580	147.02174	57.37213	
32	0.310	277.06750	150.10307	192.45485	280.57153	147.02272	57.36867	
33	0.320	277.06787	150.10387	192.45676	280.57623	147.02357	57.36588	
34	0.330	277.06851	150.10371	192.45746	280.57809	147.02376	57.36467	
35	0.340	277.06827	150.10332	192.45702	280.57654	147.02299	57.36532	
36	0.350	277.06635	150.10349	192.45612	280.57217	147.02145	57.36749	
37	0.360	277.06293	150.10457	192.45557	280.56616	147.01956	57.37057	
38	0.370	277.05911	150.10625	192.45576	280.55984	147.01775	57.37391	
39	0.380	277.05643	150.10782	192.45648	280.55447	147.01625	57.37684	
40	0.390	277.05569	150.10878	192.45737	280.55078	147.01520	57.37889	
41	0.400	277.05685	150.10890	192.45819	280.54922	147.01466	57.37983	
42	0.410	277.05942	150.10828	192.45903	280.54977	147.01469	57.37959	
43	0.420	277.06253	150.10722	192.45999	280.55176	147.01523	57.37858	
44	0.430	277.06522	150.10616	192.46098	280.55414	147.01611	57.37740	
45	0.440	277.06680	150.10555	192.46178	280.55615	147.01706	57.37645	
46	0.450	277.06699	150.10559	192.46207	280.55774	147.01791	57.37573	
47	0.460	277.06586	150.10616	192.46170	280.55914	147.01872	57.37512	
48	0.470	277.06403	150.10689	192.46075	280.56049	147.01959	57.37456	
49	0.480	277.06226	150.10751	192.45956	280.56165	147.02071	57.37412	
50	0.490	277.06104	150.10805	192.45862	280.56219	147.02208	57.37405	
51	0.500	277.06036	150.10867	192.45837	280.56168	147.02353	57.37450	
52	0.510	277.06009	150.10944	192.45888	280.56009	147.02472	57.37529	
53	0.520	277.06009	150.11011	192.45992	280.55786	147.02534	57.37608	
54	0.530	277.06036	150.11032	192.46103	280.55569	147.02551	57.37659	
55	0.540	277.06107	150.10979	192.46178	280.55426	147.02556	57.37666	
56	0.550	277.06198	150.10846	192.46191	280.55389	147.02579	57.37633	
57	0.560	277.06287	150.10678	192.46175	280.55429	147.02615	57.37590	
58	0.570	277.06360	150.10527	192.46176	280.55472	147.02637	57.37563	
59	0.580	277.06412	150.10429	192.46222	280.55481	147.02620	57.37560	
60	0.590	277.06421	150.10408	192.46324	280.55450	147.02551	57.37584	
61	0.600	277.06363	150.10498	192.46497	280.55362	147.02423	57.37648	
62	0.610	277.06210	150.10710	192.46736	280.55206	147.02240	57.37756	
63	0.620	277.06003	150.11003	192.46996	280.54996	147.02029	57.37897	
64	0.630	277.05807	150.11296	192.47221	280.54752	147.01825	57.38059	
65	0.640	277.05719	150.11508	192.47375	280.54489	147.01662	57.38241	
66	0.650	277.05777	150.11574	192.47430	280.54233	147.01573	57.38428	
67	0.660	277.05972	150.11464	192.47342	280.54050	147.01591	57.38589	
68	0.670	277.06244	150.11179	192.47076	280.53986	147.01730	57.38697	
69	0.680	277.06537	150.10753	192.46640	280.54062	147.01996	57.38744	
70	0.690	277.06821	150.10255	192.46106	280.54276	147.02373	57.38733	
71	0.700	277.07074	150.09778	192.45595	280.54611	147.02818	57.38668	
72	0.710	277.07291	150.09416	192.45230	280.55042	147.03264	57.38553	
73	0.720	277.07486	150.09229	192.45088	280.55511	147.03641	57.38403	
74	0.730	277.07672	150.09219	192.45149	280.55933	147.03905	57.38252	
75	0.740	277.07837	150.09329	192.45308	280.56204	147.04034	57.38147	
76	0.750	277.07990	150.09464	192.45433	280.56265	147.04030	57.38116	
77	0.760	277.08148	150.09544	192.45450	280.56100	147.03896	57.38162	
78	0.770	277.08337	150.09543	192.45367	280.55762	147.03639	57.38260	
79	0.780	277.08554	150.09456	192.45247	280.55322	147.03297	57.38376	
80	0.790	277.08740	150.09325	192.45152	280.54877	147.02934	57.38483	
81	0.800	277.08807	150.09230	192.45137	280.54501	147.02618	57.38558	
82	0.810	277.08707	150.09247	192.45224	280.54266	147.02388	57.38585	
83	0.820	277.08469	150.09396	192.45412	280.54205	147.02252	57.38554	
84	0.830	277.08167	150.09630	192.45662	280.54327	147.02211	57.38460	
85	0.840	277.07874	150.09886	192.45943	280.54642	147.02264	57.38300	
86	0.850	277.07590	150.10136	192.46228	280.55106	147.02402	57.38076	
87	0.860	277.07306	150.10376	192.46492	280.55609	147.02577	57.37832	
88	0.870	277.07031	150.10593	192.46703	280.56000	147.02727	57.37634	
89	0.880	277.06812	150.10757	192.46835	280.56186	147.02805	57.37526	
90	0.890	277.06699	150.10844	192.46892	280.56216	147.02809	57.37492	
91	0.900	277.06732	150.10828	192.46889	280.56229	147.02774	57.37476	
92	0.910	277.06924	150.10696	192.46829	280.56305	147.02727	57.37445	
93	0.920	277.07278	150.10463	192.46712	280.56418	147.02682	57.37412	
94	0.930	277.07742	150.10172	192.46550	280.56506	147.02655	57.37408	
95	0.940	277.08221	150.09889	192.46379	280.56512	147.02660	57.37455	
96	0.950	277.08615	150.09688	192.46252	280.56378	147.02687	57.37573	
97	0.960	277.08835	150.09634	192.46234	280.55978	147.02693	57.37810	
98	0.970	277.08795	150.09790	192.46397	280.55179	147.02634	57.38219	
99	0.980	277.08395	150.10213	192.46815	280.53900	147.02487	57.38828	
100	0.990	277.07501	150.10924	192.47533	280.52127	147.02266	57.39641	
101	1.000	277.06006	150.11896	192.48579	280.49896	147.01978	57.40641	
102	1.010	277.03885	150.13033	192.49980	280.47305	147.01596	57.41774	
103	1.020	277.01248	150.14171	192.51740	280.44519	147.01051	57.42943	
104	1.030	276.98346	150.15103	192.53793	280.41739	147.00253	57.44021	
105	1.040	276.95560	150.15625	192.55962	280.39188	146.99147	57.44878	
106	1.050	276.93484	150.15547	192.57925	280.37039	146.97716	57.45412	
107	1.060	276.93060	150.14674	192.59212	280.35367	146.95926	57.45589	
108	1.070	276.95627	150.12775	192.59251	280.34116	146.93713	57.45464	
109	1.080	277.02844	150.09581	192.57498	280.33133	146.91035	57.45196	
110	1.090	277.16406	150.04855	192.53590	280.32254	146.87967	57.45042	
111	1.100	277.37485	149.98529	192.47559	280.31320	146.84755	57.45341	
112	1.110	277.65860	149.90851	192.40155	280.30182	146.81807	57.46505	
113	1.120	277.98618	149.82593	192.33322	280.28696	146.79538	57.49060	
114	1.130	278.29559	149.75110	192.30347	280.26855	146.78166	57.53656	
115	1.140	278.51425	149.69855	192.34799	280.24942	146.77565	57.60983	
116	1.150	278.60187	149.67522	192.48599	280.23456	146.77351	57.71687	
117	1.160	278.57706	149.67590	192.70871	280.22852	146.77182	57.86284	
118	1.170	278.50955	149.68619	192.98357	280.23376	146.77002	58.05026	
119	1.180	278.48001	149.69106	193.27222	280.25024	146.77019	58.27834	
120	1.190	278.52530	149.68495	193.55508	280.27582	146.77440	58.54369	
121	1.200	278.61572	149.67506	193.84250	280.30801	146.78259	58.84029	
122	1.210	278.68973	149.67392	194.15993	280.34741	146.79242	59.15882	
123	1.220	278.71207	149.68729	194.52090	280.40048	146.80066	59.48769	
124	1.230	278.69632	149.71017	194.91628	280.47766	146.80472	59.81613	
125	1.240	278.66693	149.73616	195.33170	280.58557	146.80377	60.13873	
126	1.250	278.60684	149.76930	195.77156	280.71738	146.79926	60.45924	
127	1.260	278.46170	149.82227	196.25681	280.84680	146.79529	60.79158	
128	1.270	278.19870	149.90240	196.79929	280.93762	146.79773	61.15369	
129	1.280	277.84659	150.00247	197.38522	280.97598	146.80914	61.55100	
130	1.290	277.47583	150.10609	197.98433	280.98801	146.82501	61.96864	
131	1.300	277.15134	150.19879	198.56851	281.00912	146.83856	62.38814	
132	1.310	276.90976	150.27219	199.12013	281.04559	146.84805	62.80666	
133	1.320	276.76581	150.32109	199.62959	281.07440	146.85695	63.23431	
134	1.330	276.72336	150.34239	200.09250	281.07916	146.86729	63.67471	
135	1.340	276.78268	150.33614	200.50800	281.07324	146.87595	64.11525	
136	1.350	276.94431	150.30516	200.87711	281.07535	146.87949	64.54407	
137	1.360	277.20673	150.25294	201.20164	281.07416	146.88063	64.97008	
138	1.370	277.55807	150.18301	201.48575	281.03079	146.88704	65.41854	
139	1.380	277.96536	150.10158	201.74236	280.92130	146.90331	65.90359	
140	1.390	278.36896	150.02046	201.99820	280.76614	146.92570	66.41107	
141	1.400	278.70062	149.95415	202.28503	280.60706	146.94678	66.91553	
142	1.410	278.92111	149.91153	202.62051	280.47504	146.96208	67.40273	
143	1.420	279.03821	149.89154	203.00102	280.38556	146.97160	67.87115	
144	1.430	279.08115	149.88774	203.41501	280.34213	146.97780	68.32376	
145	1.440	279.07016	149.89476	203.85551	280.33694	146.98251	68.76355	
146	1.450	279.02591	149.90804	204.31444	280.35489	146.98584	69.19347	
147	1.460	278.99078	149.92007	204.77357	280.38156	146.98744	69.61724	
148	1.470	279.00781	149.92329	205.21359	280.40878	146.98773	70.03813	
149	1.480	279.07608	149.91714	205.63223	280.43411	146.98705	70.45705	
150	1.490	279.14966	149.90883	206.04573	280.45712	146.98526	70.87236	
151	1.500	279.18259	149.90654	206.47244	280.47766	146.98268	71.28072	
152	1.510	279.15320	149.91566	206.92178	280.49814	146.98012	71.67738	
153	1.520	279.04318	149.94202	207.39969	280.52618	146.97763	72.05688	
154	1.530	278.82480	149.99266	207.91385	280.57333	146.97356	72.41565	
155	1.540	278.49094	150.06856	208.46487	280.64920	146.96562	72.75512	
156	1.550	278.08542	150.15924	209.03644	280.75244	146.95305	73.08273	
157	1.560	277.68665	150.24773	209.60136	280.86157	146.93857	73.41266	
158	1.570	277.36499	150.31976	210.13609	280.94080	146.92761	73.76314	
